<svg width="35" height="24" version="1.1" viewBox="0 0 22.4 15.36" xml:space="preserve" xmlns="http://www.w3.org/2000/svg">
	<path d="m8.41 13.364h-0.31894l0.51718-0.7211c0.044936-0.06265 0.069101-0.13778 0.069101-0.21488v-0.33031c0-0.20361-0.16511-0.36872-0.36874-0.36872-0.2036 0-0.36872 0.16511-0.36872 0.36872v0.21172l-0.75634 1.0546h-4.7188l-0.75634-1.0546v-6.0702l0.75634-1.0546h5.9453c0.2036 0 0.36872-0.16511 0.36872-0.36872 0-0.20361-0.16511-0.36874-0.36872-0.36874h-3.1256v-0.057926c0-0.66072-0.53754-1.1983-1.1983-1.1983-0.16555 0-0.32338 0.033775-0.46694 0.094772v-0.84634c0-0.12839-0.066804-0.2476-0.17636-0.31456l-1.9297-1.1799c-0.17378-0.10638-0.40073-0.051553-0.50696 0.1222-0.10622 0.17375-0.051499 0.40068 0.1222 0.50694l1.7533 1.0721v1.8011h-1.6435c-0.20366 0-0.36872 0.16511-0.36872 0.36872 0 0.20361 0.16508 0.36872 0.36872 0.36872h0.31894l-0.51718 0.72112c-0.044936 0.062648-0.069101 0.13778-0.069101 0.21491v6.3073c0 0.0771 0.024172 0.15226 0.069101 0.21488l0.51718 0.72104h-0.31894c-0.20366 0-0.36872 0.16511-0.36872 0.36872s0.16508 0.36872 0.36872 0.36872h7.1717c0.2036 0 0.36872-0.16511 0.36872-0.36872 0-0.20358-0.16511-0.36869-0.36874-0.36869zm-4.7846-8.9747c0-0.2541 0.2067-0.4608 0.4608-0.4608 0.2541 0 0.4608 0.2067 0.4608 0.4608v0.057926h-0.92161z" stroke-width=".025802" fill="#fff" /><g fill="#fff">
	<text x="7.8893085" y="9.2735348" font-size=".19816px" stroke-width=".016514" xml:space="preserve"><tspan x="7.8893085" y="9.2735348" stroke-width=".016514"/></text><text x="8.0502481" y="11.341068" font-size="8.5333px" letter-spacing="0px" stroke-width=".64" xml:space="preserve"><tspan x="8.0502481" y="11.341068" font-family="Roboto" font-size="8.5333px" font-weight="300" stroke-width=".64">can</tspan></text><text x="2.5780249" y="11.66484" font-size="10.24px" letter-spacing="0px" stroke-width=".64" xml:space="preserve"><tspan x="2.5780249" y="11.66484" font-family="Roboto" font-size="10.24px" font-weight="bold" stroke-width=".64"/></text></g><circle cx="5.0394" cy="9.1044" r="2.0124" fill="none" stroke="#fff" stroke-width=".768"/>
</svg>
