<svg width="81mm" height="80mm" version="1.1" viewBox="0 0 81 80" xml:space="preserve" xmlns="http://www.w3.org/2000/svg"><g transform="translate(-64.631 -108.64)"><path d="m128.96 117.68a37.986 37.986 0 0 0-0.78858-0.51987 37.986 37.986 0 0 0-1.6588-0.97617 37.986 37.986 0 0 0-1.7058-0.89141 37.986 37.986 0 0 0-1.7487-0.80306 37.986 37.986 0 0 0-1.7875-0.71416 37.986 37.986 0 0 0-1.8211-0.6227 37.986 37.986 0 0 0-1.85-0.52917 37.986 37.986 0 0 0-1.8748-0.43512 37.986 37.986 0 0 0-1.8944-0.33951 37.986 37.986 0 0 0-1.5694-0.19999 37.986 37.986 0 0 1 0.33693 0.078 37.986 37.986 0 0 1 1.85 0.52969 37.986 37.986 0 0 1 1.8216 0.6227 37.986 37.986 0 0 1 1.787 0.71365 37.986 37.986 0 0 1 1.7487 0.80357 37.986 37.986 0 0 1 1.7058 0.8909 37.986 37.986 0 0 1 1.6588 0.97668 37.986 37.986 0 0 1 1.6066 1.0588 37.986 37.986 0 0 1 1.5513 1.139 37.986 37.986 0 0 1 1.4919 1.2165 37.986 37.986 0 0 1 1.4278 1.2904 37.986 37.986 0 0 1 1.3612 1.3606 37.986 37.986 0 0 1 1.2898 1.4283 37.986 37.986 0 0 1 1.2165 1.4914 37.986 37.986 0 0 1 1.139 1.5513 37.986 37.986 0 0 1 1.0594 1.6071 37.986 37.986 0 0 1 0.97617 1.6583 37.986 37.986 0 0 1 0.8909 1.7058 37.986 37.986 0 0 1 0.80357 1.7487 37.986 37.986 0 0 1 0.71417 1.7875 37.986 37.986 0 0 1 0.62218 1.8211 37.986 37.986 0 0 1 0.52969 1.8505 37.986 37.986 0 0 1 0.43511 1.8743 37.986 37.986 0 0 1 0.33952 1.8944 37.986 37.986 0 0 1 0.24288 1.9094 37.986 37.986 0 0 1 0.14624 1.9187 37.986 37.986 0 0 1 0.0491 1.9239 37.986 37.986 0 0 1-0.38705 5.4064 37.986 37.986 0 0 1-1.1519 5.2958 37.986 37.986 0 0 1-1.8939 5.0782 37.986 37.986 0 0 1-2.5978 4.7568 37.986 37.986 0 0 1-3.2479 4.3388 37.986 37.986 0 0 1-3.8323 3.8323 37.986 37.986 0 0 1-2.7766 2.0784 37.984 37.984 0 0 0 0.35863-0.19585 37.984 37.984 0 0 0 4.3388-3.2479 37.984 37.984 0 0 0 3.8323-3.8323 37.984 37.984 0 0 0 3.2474-4.3382 37.984 37.984 0 0 0 2.5973-4.7568 37.984 37.984 0 0 0 1.8939-5.0777 37.984 37.984 0 0 0 1.1524-5.2958 37.984 37.984 0 0 0 0.38654-5.4059 37.984 37.984 0 0 0-0.0486-1.9239 37.984 37.984 0 0 0-0.14625-1.9187 37.984 37.984 0 0 0-0.24339-1.9089 37.984 37.984 0 0 0-0.33952-1.8945 37.984 37.984 0 0 0-0.43511-1.8748 37.984 37.984 0 0 0-0.52917-1.85 37.984 37.984 0 0 0-0.6227-1.8211 37.984 37.984 0 0 0-0.71365-1.787 37.984 37.984 0 0 0-0.80357-1.7487 37.984 37.984 0 0 0-0.8909-1.7058 37.984 37.984 0 0 0-0.97617-1.6588 37.984 37.984 0 0 0-1.0594-1.6066 37.984 37.984 0 0 0-1.139-1.5513 37.984 37.984 0 0 0-1.2159-1.4914 37.984 37.984 0 0 0-1.2904-1.4278 37.984 37.984 0 0 0-1.3606-1.3612 37.984 37.984 0 0 0-1.4283-1.2898 37.984 37.984 0 0 0-0.7798-0.63613z" style="paint-order:normal"/><path d="m125.18 179.29a37.984 37.984 0 0 1-4.3977 2.4014 37.984 37.984 0 0 1-5.0782 1.8939 37.984 37.984 0 0 1-5.2953 1.1519 37.984 37.984 0 0 1-5.4059 0.38654 37.984 37.984 0 0 1-5.4059-0.38654 37.984 37.984 0 0 1-5.2953-1.1519 37.984 37.984 0 0 1-5.0782-1.8939 37.984 37.984 0 0 1-4.5418-2.4805 37.986 37.986 0 0 0 2.8644 2.1446 37.986 37.986 0 0 0 4.7568 2.5978 37.986 37.986 0 0 0 5.0777 1.8939 37.986 37.986 0 0 0 1.6082 0.34985 37.986 37.986 0 0 0 4.0923 0.29249 37.986 37.986 0 0 0 5.4059-0.38654 37.986 37.986 0 0 0 5.2958-1.1524 37.986 37.986 0 0 0 5.0782-1.894 37.986 37.986 0 0 0 4.7568-2.5972 37.986 37.986 0 0 0 1.5622-1.1694z" style="paint-order:normal"/><path d="m84.679 179.21a37.986 37.986 0 0 1-1.4743-1.1033 37.986 37.986 0 0 1-3.8328-3.8323 37.986 37.986 0 0 1-3.2479-4.3388 37.986 37.986 0 0 1-2.5973-4.7568 37.986 37.986 0 0 1-1.8939-5.0782 37.986 37.986 0 0 1-1.1524-5.2958 37.986 37.986 0 0 1-0.38654-5.4059 37.986 37.986 0 0 1 0.38654-5.4059 37.986 37.986 0 0 1 1.1524-5.2963 37.986 37.986 0 0 1 1.8939-5.0777 37.986 37.986 0 0 1 2.5973-4.7568 37.986 37.986 0 0 1 3.2479-4.3388 37.986 37.986 0 0 1 3.8328-3.8323 37.986 37.986 0 0 1 4.3388-3.2484 37.986 37.986 0 0 1 4.7568-2.5973 37.986 37.986 0 0 1 5.0777-1.8939 37.986 37.986 0 0 1 5.2963-1.1524 37.986 37.986 0 0 1 5.4059-0.38654 37.986 37.986 0 0 1 1.9239 0.0491 37.986 37.986 0 0 1 1.9187 0.14572 37.986 37.986 0 0 1 0.34003 0.0434 37.986 37.986 0 0 0-1.5379-0.35657 37.986 37.986 0 0 0-1.8945-0.33951 37.986 37.986 0 0 0-1.9089-0.2434 37.986 37.986 0 0 0-1.9193-0.14624 37.986 37.986 0 0 0-1.9239-0.0486 37.986 37.986 0 0 0-5.4059 0.38654 37.986 37.986 0 0 0-5.2963 1.1519 37.986 37.986 0 0 0-5.0777 1.8945 37.986 37.986 0 0 0-4.3754 2.389 37.984 37.984 0 0 0-2.7972 2.0939 37.984 37.984 0 0 0-3.8318 3.8323 37.984 37.984 0 0 0-3.2479 4.3382 37.984 37.984 0 0 0-2.5973 4.7568 37.984 37.984 0 0 0-1.8939 5.0777 37.984 37.984 0 0 0-1.1524 5.2958 37.984 37.984 0 0 0-0.38654 5.4054 37.984 37.984 0 0 0 0.38654 5.4059 37.984 37.984 0 0 0 1.1524 5.2958 37.984 37.984 0 0 0 1.8939 5.0777 37.984 37.984 0 0 0 2.5973 4.7568 37.984 37.984 0 0 0 3.2479 4.3382 37.984 37.984 0 0 0 3.8318 3.8323 37.984 37.984 0 0 0 4.3388 3.2479 37.984 37.984 0 0 0 0.21446 0.11678z" style="paint-order:normal"/></g><g transform="matrix(.10335 0 0 .10335 13.911 4.3599)" fill="currentColor" stroke="currentColor" stroke-width="0"><path d="m256 48c-114.88 0-208 93.125-208 208s93.124 208 208 208c114.88 0 208-93.125 208-208s-93.125-208-208-208zm-21.549 385c-39.464-4.726-75.978-22.392-104.52-50.932-33.674-33.674-52.218-78.445-52.218-126.07 0-42.87 15.036-83.424 42.601-115.66 0.71 8.517 2.463 17.648 2.014 24.175-1.64 23.795-3.988 38.687 9.94 58.762 5.426 7.819 6.759 19.028 9.4 28.078 2.583 8.854 12.902 13.498 20.019 18.953 14.359 11.009 28.096 23.805 43.322 33.494 10.049 6.395 16.326 9.576 13.383 21.839-2.367 9.862-3.028 15.937-8.13 24.723-1.557 2.681 5.877 19.918 8.351 22.392 7.498 7.497 14.938 14.375 23.111 21.125 12.671 10.469-1.231 24.072-7.274 39.117zm147.62-50.932c-25.633 25.633-57.699 42.486-92.556 49.081 4.94-12.216 13.736-23.07 21.895-29.362 7.097-5.476 15.986-16.009 19.693-24.352 3.704-8.332 8.611-15.555 13.577-23.217 7.065-10.899-17.419-27.336-25.353-30.781-17.854-7.751-31.294-18.21-47.161-29.375-11.305-7.954-34.257 4.154-47.02-1.417-17.481-7.633-31.883-20.896-47.078-32.339-15.68-11.809-14.922-25.576-14.922-42.997 12.282 0.453 29.754-3.399 37.908 6.478 2.573 3.117 11.42 17.042 17.342 12.094 4.838-4.043-3.585-20.249-5.212-24.059-5.005-11.715 11.404-16.284 19.803-24.228 10.96-10.364 34.47-26.618 32.612-34.047s-23.524-28.477-36.249-25.193c-1.907 0.492-18.697 18.097-21.941 20.859 0.086-5.746 0.172-11.491 0.26-17.237 0.055-3.628-6.768-7.352-6.451-9.692 0.8-5.914 17.262-16.647 21.357-21.357-2.869-1.793-12.659-10.202-15.622-8.968-7.174 2.99-15.276 5.05-22.45 8.039 0-2.488-0.302-4.825-0.662-7.133a176.58 176.58 0 0 1 45.31-13.152l14.084 5.66 9.944 11.801 9.924 10.233 8.675 2.795 13.779-12.995-3.553-9.277v-8.339c27.25 3.958 52.984 14.124 75.522 29.8-4.032 0.361-8.463 0.954-13.462 1.59-2.065-1.22-4.714-1.774-6.965-2.623 6.531 14.042 13.343 27.89 20.264 41.746 7.393 14.801 23.793 30.677 26.673 46.301 3.394 18.416 1.039 35.144 2.896 56.811 1.788 20.865 23.524 44.572 23.524 44.572s10.037 3.419 18.384 2.228c-7.781 30.783-23.733 59.014-46.769 82.052z"/></g><text x="22.340981" y="60.389389" fill="#000000" font-family="Roboto" font-size="7.0556px" font-weight="300" stroke-width="1.617" style="paint-order:normal" xml:space="preserve"><tspan x="22.340981" y="60.389389" font-family="Roboto" font-size="7.0556px" font-weight="500" stroke-width="1.617">OMER TOM</tspan></text><text x="22.392464" y="65.168869" fill="#000000" font-family="Roboto" font-size="4.1658px" font-weight="500" stroke-width="1.5912" style="paint-order:normal" xml:space="preserve"><tspan x="22.392464" y="65.168869" font-size="4.1658px" stroke-width="1.5912">Import &amp; Marketing</tspan></text></svg>
